<svg xmlns="http://www.w3.org/2000/svg" width="24" height="24" viewBox="0 0 24 24"><path fill="none" stroke="#020202" stroke-linecap="round" stroke-linejoin="round" stroke-width="1.5" d="M2.5 8.187c.104-2.1.415-3.41 1.347-4.34c.93-.932 2.24-1.243 4.34-1.347M21.5 8.187c-.104-2.1-.415-3.41-1.347-4.34c-.93-.932-2.24-1.243-4.34-1.347m0 19c2.1-.104 3.41-.415 4.34-1.347c.932-.93 1.243-2.24 1.347-4.34M8.187 21.5c-2.1-.104-3.41-.415-4.34-1.347c-.932-.93-1.243-2.24-1.347-4.34M17.5 17l-.202-.849a2 2 0 0 0-1.392-1.458l-2.406-.694v-1.467c.896-.605 1.5-1.736 1.5-3.032C15 7.567 13.656 6 12 6c-1.657 0-3 1.567-3 3.5c0 1.296.603 2.427 1.5 3.032v1.467l-2.391.7a2 2 0 0 0-1.371 1.406L6.5 17"/></svg>