<svg xmlns="http://www.w3.org/2000/svg" width="24" height="24" viewBox="0 0 24 24"><g fill="none"><path fill="#020202" fill-opacity="0.25" d="M4 12c0-.943 0-1.414.293-1.707S5.057 10 6 10h12c.943 0 1.414 0 1.707.293S20 11.057 20 12v6.038c0 .38 0 .571-.029.74a2 2 0 0 1-1.164 1.49c-.156.07-.341.116-.71.208c-1.238.31-1.857.464-2.476.578c-2.394.44-4.848.44-7.243 0c-.618-.114-1.237-.269-2.474-.578c-.37-.092-.555-.139-.71-.207a2 2 0 0 1-1.165-1.492C4 18.61 4 18.42 4 18.037z"/><path stroke="#020202" d="M16.5 10V9a4.5 4.5 0 1 0-9 0v1" stroke-width="1"/><circle cx="12" cy="15" r="2" fill="#020202"/><path stroke="#020202" stroke-linecap="round" d="M12 16v2.5" stroke-width="1"/></g></svg>